<svg xmlns:xlink="http://www.w3.org/1999/xlink" data-ds-icon="Popout" width="16" height="16" viewBox="0 0 24 24" xmlns="http://www.w3.org/2000/svg" fill="none" class="inline-block shrink-0"><!----><path fill="#FFFFFF" d="M14.395 3c-.55 0-1 .45-1 1s.45 1 1 1h3.19l-9.49 9.49a.996.996 0 0 0 .71 1.7c.26 0 .51-.1.71-.29l9.49-9.49V9.6c0 .55.45 1 1 1s1-.45 1-1V4c0-.55-.45-1-1-1z"></path><path fill="#FFFFFF" d="M19.995 19h-15V4c0-.55-.45-1-1-1s-1 .45-1 1v16c0 .55.45 1 1 1h16c.55 0 1-.45 1-1s-.45-1-1-1"></path></svg>